<?xml version="1.0" encoding="UTF-8" standalone="no"?>
<svg
   width="93"
   height="93"
   viewBox="0 0 93 93"
   fill="none"
   version="1.1"
   id="svg1"
   sodipodi:docname="logo.svg"
   inkscape:version="1.3.2 (091e20e, 2023-11-25, custom)"
   inkscape:export-filename="logo.png"
   inkscape:export-xdpi="96"
   inkscape:export-ydpi="96"
   xmlns:inkscape="http://www.inkscape.org/namespaces/inkscape"
   xmlns:sodipodi="http://sodipodi.sourceforge.net/DTD/sodipodi-0.dtd"
   xmlns="http://www.w3.org/2000/svg"
   xmlns:svg="http://www.w3.org/2000/svg">
  <defs
     id="defs1" />
  <sodipodi:namedview
     id="namedview1"
     pagecolor="#ffffff"
     bordercolor="#000000"
     borderopacity="0.25"
     inkscape:showpageshadow="2"
     inkscape:pageopacity="0.0"
     inkscape:pagecheckerboard="0"
     inkscape:deskcolor="#d1d1d1"
     inkscape:zoom="8.827957"
     inkscape:cx="46.556638"
     inkscape:cy="46.5"
     inkscape:window-width="1920"
     inkscape:window-height="1017"
     inkscape:window-x="1072"
     inkscape:window-y="363"
     inkscape:window-maximized="1"
     inkscape:current-layer="svg1" />
  <path
     d="M46.5 4C23.0992 4 4 23.0992 4 46.5C4 69.9008 23.0992 89 46.5 89C69.9008 89 89 69.9008 89 46.5C89 23.0992 69.9008 4 46.5 4ZM15.8725 46.5C15.8725 37.7247 19.6579 29.6377 25.6802 24.1316C28.0891 21.8948 32.2186 22.583 33.9393 25.5081L44.6073 43.9191C45.6397 45.6397 45.6397 47.7044 44.6073 49.4251L33.9393 67.836C32.2186 70.9332 28.0891 71.4494 25.5081 69.0405C19.6579 63.1903 15.8725 55.2753 15.8725 46.5ZM59.0607 67.4919L48.3927 49.081C47.3603 47.3603 47.3603 45.2956 48.3927 43.5749L59.0607 25.1639C60.7814 22.2388 64.7389 21.5506 67.3198 23.7875C73.3421 29.2935 77.1275 37.3806 77.1275 46.1559C77.1275 54.9312 73.3421 63.0182 67.3198 68.5243C64.7389 71.2773 60.7814 70.5891 59.0607 67.4919Z"
     fill="#201B21"
     id="path1"
     style="fill:#499bfc;fill-opacity:1" />
</svg>
